<?xml version="1.0" standalone="no"?>
<!DOCTYPE svg PUBLIC "-//W3C//DTD SVG 20010904//EN"
 "http://www.w3.org/TR/2001/REC-SVG-20010904/DTD/svg10.dtd">
<svg version="1.0" xmlns="http://www.w3.org/2000/svg"
 width="980.000000pt" height="982.000000pt" viewBox="0 0 980.000000 982.000000"
 preserveAspectRatio="xMidYMid meet">

<g transform="translate(0.000000,982.000000) scale(0.100000,-0.100000)"
fill="#9333ea" stroke="none">
<path d="M4625 9813 c-554 -29 -1130 -163 -1645 -381 -141 -60 -152 -67 -125
-73 33 -9 433 -43 680 -59 510 -32 1155 -47 2275 -55 465 -3 973 -7 1130 -10
l285 -5 -166 83 c-566 284 -1209 455 -1864 497 -147 9 -424 11 -570 3z"/>
<path d="M1268 8222 c-119 -131 -220 -253 -324 -393 -76 -102 -192 -271 -200
-293 -10 -26 205 -132 448 -221 565 -208 1365 -337 2443 -395 436 -23 732 -30
1760 -40 2216 -21 2721 -40 3440 -131 174 -22 472 -71 574 -95 35 -8 66 -12
69 -9 16 16 -199 480 -322 695 -68 118 -273 433 -323 498 -16 19 -35 24 -138
37 -588 71 -1108 92 -2625 105 -1675 14 -2236 31 -2910 86 -649 52 -1202 134
-1655 245 -66 16 -122 29 -125 29 -3 0 -53 -53 -112 -118z"/>
<path d="M162 6233 c-77 -276 -124 -524 -157 -825 l-6 -58 78 -78 c505 -503
1493 -779 3143 -876 577 -35 994 -44 2520 -56 1094 -10 1465 -17 1865 -40 866
-49 1504 -146 1996 -303 l107 -34 21 121 c59 342 84 751 64 1048 l-6 98 -116
45 c-419 162 -1043 257 -2016 305 -300 15 -1106 29 -2290 40 -1016 10 -1274
16 -1740 40 -1452 75 -2509 285 -3274 651 -79 38 -145 69 -146 69 -2 0 -21
-66 -43 -147z"/>
<path d="M120 3745 c0 -18 70 -258 114 -390 74 -222 164 -437 276 -660 l95
-190 60 -29 c33 -16 116 -49 185 -73 522 -185 1173 -299 2065 -362 632 -45
1109 -58 2675 -71 1372 -12 1776 -23 2315 -66 217 -17 590 -58 713 -77 l83
-14 86 111 c163 212 367 534 481 763 l41 82 -77 25 c-373 121 -959 204 -1732
246 -434 23 -785 30 -1855 40 -1602 13 -2072 26 -2745 76 -1145 83 -2071 277
-2722 568 -32 14 -58 24 -58 21z"/>
<path d="M2155 835 c48 -39 266 -171 411 -250 952 -512 2041 -694 3119 -520
403 65 819 190 1225 370 144 64 451 228 442 236 -15 15 -736 30 -1832 39
-1492 13 -2097 29 -2700 75 -179 14 -532 47 -640 61 -43 5 -44 4 -25 -11z"/>
</g>
</svg>
