<?xml version="1.0" encoding="iso-8859-1"?>
<!-- Uploaded to: SVG Repo, www.svgrepo.com, Transformed by: SVG Repo Mixer Tools -->
<svg fill="#9333ea" height="800px" width="800px" version="1.1" id="Layer_1" xmlns="http://www.w3.org/2000/svg" xmlns:xlink="http://www.w3.org/1999/xlink" 
	 viewBox="0 0 511.999 511.999" xml:space="preserve">
<g>
	<g>
		<g>
			<path d="M364.097,378.976c-19.358-12.113-45.286-20.668-73.789-24.474c33.459-71.867,85.597-190.874,85.597-234.595
				C375.905,53.79,322.115,0,256,0c-66.115,0-119.906,53.79-119.906,119.906c0,43.721,52.139,162.729,85.597,234.595
				c-28.503,3.807-54.432,12.361-73.789,24.474c-23.102,14.457-35.825,33.331-35.825,53.146c0,22.284,15.636,42.835,44.027,57.864
				c26.812,14.195,62.29,22.013,99.896,22.013s73.083-7.818,99.896-22.013c28.391-15.03,44.026-35.58,44.026-57.864
				C399.922,412.308,387.199,393.433,364.097,378.976z M151.75,119.906c0-57.483,46.766-104.25,104.25-104.25
				s104.249,46.766,104.249,104.25c0,50.539-79.817,219.725-104.249,270.324C231.562,339.618,151.75,170.45,151.75,119.906z
				 M256,496.343c-69.528,0-128.267-29.41-128.267-64.221c0-29.666,43.114-56.261,100.943-62.718
				c11.181,23.698,19.13,39.797,20.309,42.176L256,425.744l7.015-14.164c1.177-2.379,9.128-18.478,20.309-42.176
				c57.828,6.458,100.942,33.053,100.942,62.718C384.266,466.934,325.527,496.343,256,496.343z"/>
			<path d="M351.889,119.906c0-52.874-43.016-95.89-95.889-95.89c-52.874,0-95.89,43.016-95.89,95.89
				c0,52.873,43.016,95.889,95.89,95.889C308.873,215.795,351.889,172.779,351.889,119.906z M175.767,119.906
				c0-44.241,35.992-80.233,80.233-80.233c44.24,0,80.232,35.992,80.232,80.233c0,44.24-35.992,80.232-80.232,80.232
				C211.759,200.139,175.767,164.146,175.767,119.906z"/>
			<path d="M327.872,119.906c0-39.631-32.242-71.873-71.872-71.873s-71.873,32.242-71.873,71.873
				c0,39.631,32.242,71.872,71.873,71.872S327.872,159.537,327.872,119.906z M199.784,119.906c0-30.998,25.219-56.216,56.216-56.216
				s56.215,25.219,56.215,56.216c0,30.998-25.219,56.215-56.215,56.215S199.784,150.904,199.784,119.906z"/>
		</g>
	</g>
</g>
</svg>